<svg width="311" height="96" viewBox="0 0 311 96" fill="none" xmlns="http://www.w3.org/2000/svg">
<mask id="mask0_133_59" style="mask-type:luminance" maskUnits="userSpaceOnUse" x="0" y="0" width="311" height="96">
<path d="M310.78 0H0V95.79H310.78V0Z" fill="white"/>
</mask>
<g mask="url(#mask0_133_59)">
<path d="M82.2395 19.39C81.3095 19.94 73.6495 23.39 69.5295 25.94C62.9295 29.94 63.7195 32.94 60.5295 33.76C60.2334 33.8191 59.9309 33.8393 59.6295 33.82C58.836 33.7355 58.0762 33.4536 57.4195 33C56.729 34.8337 55.9206 36.6207 54.9995 38.35L52.7695 42.51L53.9495 42.45C59.9995 42 63.0595 40.66 68.6495 36.87C74.2395 33.08 82.5395 19.66 82.7095 19.33C82.735 19.2789 82.7551 19.2253 82.7695 19.17C82.579 19.2042 82.3982 19.2793 82.2395 19.39Z" fill="white"/>
<path d="M47.1 21.0901C46.6 14.3701 39.1 0.440083 38.93 0.090083C38.903 0.0422316 38.8693 -0.00153923 38.83 -0.039917C38.7777 0.0869793 38.7505 0.222828 38.75 0.360083V0.580083C38.75 0.690083 38.75 0.820083 38.75 1.02008C38.69 2.27008 38.4 5.53008 38.22 8.91008C38.1 11.0101 38.04 13.1601 38.09 14.8501C38.3 21.7901 40.59 23.0701 40.55 25.6201C40.5269 25.9329 40.4665 26.2417 40.37 26.5401C40.1599 27.088 39.8418 27.5881 39.4347 28.0107C39.0276 28.4333 38.5397 28.7697 38 29.0001C39.2073 30.499 40.3195 32.0721 41.33 33.7101C42.12 34.9901 42.97 36.3701 43.94 37.9201C44.17 37.4901 44.4 37.0501 44.62 36.6101C46.1685 33.6302 47.0619 30.3536 47.24 27.0001C47.3224 25.0292 47.2757 23.055 47.1 21.0901Z" fill="white"/>
<path d="M56.7198 31.8301C56.8811 31.4291 57.005 31.014 57.0898 30.5901C57.0521 29.9662 56.8521 29.363 56.5098 28.8401C55.7498 27.4201 49.7098 17.5201 45.3498 10.5701C46.8447 13.8705 47.7872 17.3941 48.1398 21.0001C48.322 22.9946 48.3721 24.999 48.2898 27.0001C48.0821 30.4928 47.1345 33.9014 45.5098 37.0001C45.1998 37.6501 44.8698 38.2701 44.5098 38.9001L46.8098 42.5501C48.2998 42.5501 49.8898 42.5501 51.5198 42.4701C52.4598 40.7301 53.2798 39.2101 54.0298 37.8001C55.1011 35.8935 56.0013 33.8957 56.7198 31.8301Z" fill="white"/>
<path d="M22.38 31.91C16.31 29 0.53 28.47 0.16 28.5C0.106932 28.4925 0.0530681 28.4925 0 28.5C0.125965 28.6352 0.274947 28.747 0.44 28.83C1.38 29.36 8.19 34.27 12.44 36.56C19.23 40.26 21.44 38.09 23.7 40.42C24.0622 40.8657 24.3319 41.3792 24.4933 41.9304C24.6547 42.4815 24.7046 43.0594 24.64 43.63C24.64 43.63 24.64 43.71 24.64 43.75C26.5429 43.4467 28.4637 43.2696 30.39 43.22C31.89 43.16 33.52 43.12 35.34 43.06C35.08 42.64 34.82 42.22 34.54 41.81C31.14 36.83 28.46 34.84 22.38 31.91Z" fill="white"/>
<path d="M43.7899 42.79H44.0899C44.5699 42.79 45.0899 42.72 45.6199 42.7C43.4499 39.29 41.8299 36.62 40.3899 34.32C39.2635 32.4283 37.961 30.6471 36.4999 29C35.6599 28.17 35.9799 27.86 34.0599 27.69H33.8099C32.1999 27.64 20.6099 27.92 12.4199 28.22C16.0218 28.5714 19.5417 29.5105 22.8399 31C28.9599 33.94 31.9399 36.17 35.4299 41.32C35.8399 41.91 36.2199 42.51 36.5899 43.11C38.5299 43.05 40.6799 42.96 43.1799 42.83L43.7899 42.79Z" fill="white"/>
<path d="M19.4001 58.7201C13.8301 62.5101 5.50008 75.9301 5.33008 76.2701V76.4101C5.51888 76.3871 5.69826 76.3147 5.85008 76.2001C6.78008 75.6501 14.4501 72.2001 18.5701 69.6501C25.1701 65.6501 24.3701 62.6501 27.5701 61.8301C27.863 61.7724 28.1617 61.7489 28.4601 61.7601C29.3429 61.8554 30.1864 62.1756 30.9101 62.6901C31.6008 60.889 32.4092 59.1352 33.3301 57.4401C34.0301 56.1201 34.8001 54.6901 35.6701 53.0801C35.1701 53.0801 34.6701 53.0801 34.1801 53.1501C28.0501 53.6101 25.0001 54.9301 19.4001 58.7201Z" fill="white"/>
<path d="M23.9007 45C22.7307 45.32 22.6307 44.84 21.4107 46.67C20.5707 48.04 15.0207 58.21 11.1807 65.47C13.2882 62.5253 15.8659 59.9475 18.8107 57.84C24.4207 54 27.8107 52.53 34.0407 52.08C34.7607 52.03 35.4707 52.01 36.1707 51.99C37.0607 50.32 38.0307 48.47 39.1707 46.32C39.4811 45.3962 40.0631 44.5876 40.8407 44C36.5407 44.2 33.2907 44.26 30.4607 44.36C28.2592 44.3747 26.0635 44.5889 23.9007 45Z" fill="white"/>
<path d="M44.3395 57.8601C44.1095 58.3001 43.8795 58.7301 43.6595 59.1801C42.0951 62.1597 41.188 65.4401 40.9995 68.8001C40.9261 70.7713 40.9762 72.7452 41.1495 74.7101C41.6495 81.4201 49.1495 95.3601 49.3195 95.7101C49.3441 95.7569 49.3743 95.8006 49.4095 95.8401C49.462 95.7168 49.4892 95.5842 49.4895 95.4501C49.4895 95.3801 49.4895 95.3201 49.4895 95.2801C49.4804 95.1303 49.4804 94.98 49.4895 94.8301C49.5495 93.6001 49.8395 90.3201 50.0295 86.9301C50.1395 84.8201 50.2095 82.6801 50.1595 80.9901C49.9995 74.0001 47.6595 72.7201 47.6995 70.1701C47.7129 69.8594 47.7736 69.5525 47.8795 69.2601C48.0934 68.7057 48.4171 68.2002 48.8313 67.774C49.2454 67.3479 49.7414 67.0098 50.2895 66.7801C49.0873 65.2866 47.9881 63.7129 46.9995 62.0701C46.1495 60.8001 45.2995 59.4101 44.3395 57.8601Z" fill="white"/>
<path d="M31.4994 64.0001C31.3393 64.3965 31.2219 64.8088 31.1494 65.2301C31.1658 65.8626 31.3637 66.477 31.7194 67.0001C32.4794 68.4201 38.5094 78.3101 42.8794 85.2601C41.3807 81.9639 40.4348 78.4435 40.0794 74.8401C39.9083 72.8283 39.8616 70.8078 39.9394 68.7901C40.1363 65.2957 41.0845 61.8848 42.7194 58.7901C43.0294 58.1401 43.3694 57.5101 43.7194 56.8901C42.7194 55.2401 41.5494 53.4201 40.1794 51.3201C39.9542 50.9693 39.7633 50.5976 39.6094 50.2101C39.3619 49.7841 39.183 49.3218 39.0794 48.8401C37.0794 52.6501 35.5294 55.5001 34.1994 57.9901C33.1253 59.9106 32.2218 61.9216 31.4994 64.0001Z" fill="white"/>
<path d="M88.2095 67.24C88.084 67.1113 87.9389 67.0033 87.7795 66.92C86.8395 66.39 80.0295 61.48 75.7795 59.18C68.9895 55.49 66.7795 57.65 64.5195 55.32C64.1554 54.8755 63.8845 54.3621 63.723 53.8106C63.5615 53.2591 63.5127 52.6808 63.5795 52.11C63.5795 52 63.5795 51.88 63.5795 51.76C61.5953 52.0881 59.5903 52.2752 57.5795 52.32C56.0995 52.38 54.4895 52.42 52.6895 52.48C52.9895 52.97 53.2895 53.48 53.6195 53.93C57.0595 58.93 59.7295 60.93 65.8095 63.93C71.8895 66.93 87.6595 67.36 88.0295 67.33H88.1895L88.2095 67.24Z" fill="white"/>
<path d="M44.1299 52.8001C43.439 52.7593 42.7613 52.5933 42.1299 52.3101C44.5799 56.1301 46.3199 59.0301 47.8699 61.5201C49.0071 63.4104 50.3124 65.1942 51.7699 66.8501C52.5999 67.6701 52.2899 67.9801 54.2199 68.1501H54.4599C56.0699 68.1501 67.6799 67.9201 75.8799 67.6201C72.2664 67.2669 68.7358 66.3209 65.4299 64.8201C59.3099 61.8801 56.3299 59.6601 52.8399 54.5101C52.3899 53.8501 51.9599 53.1801 51.5499 52.5101C49.5999 52.5701 47.4299 52.6601 44.8999 52.7901C44.5999 52.8101 44.3599 52.8101 44.1299 52.8001Z" fill="white"/>
<path d="M69.2395 37.7401C63.6395 41.5701 60.2395 43.0401 54.0095 43.4901C50.3895 43.7601 46.8295 43.4901 44.1895 43.7901C41.7595 44.0501 40.1195 45.3601 39.9395 47.6601C39.9709 48.7627 40.4338 49.809 41.2286 50.5738C42.0233 51.3387 43.0866 51.7611 44.1895 51.7501H44.8095C50.3395 51.4701 54.2595 51.4001 57.5895 51.2801C59.7931 51.2485 61.989 51.0142 64.1495 50.5801C65.3195 50.2501 65.4195 50.7301 66.6295 48.9001C67.4795 47.5301 73.0295 37.3501 76.8695 30.1001C74.7646 33.0499 72.1865 35.6313 69.2395 37.7401ZM44.1195 50.0601C43.6918 50.0352 43.281 49.8836 42.9397 49.6246C42.5983 49.3656 42.3416 49.0109 42.2024 48.6056C42.0632 48.2004 42.0476 47.7628 42.1577 47.3487C42.2679 46.9346 42.4987 46.5626 42.8208 46.28C43.143 45.9974 43.5419 45.817 43.9668 45.7618C44.3918 45.7066 44.8235 45.779 45.2072 45.9698C45.5909 46.1607 45.9091 46.4613 46.1214 46.8336C46.3338 47.2058 46.4306 47.6327 46.3995 48.0601C46.356 48.6252 46.093 49.1508 45.6669 49.5246C45.2409 49.8983 44.6855 50.0905 44.1195 50.0601Z" fill="white"/>
<path d="M116.91 39.4001H112.4C112.31 41.1801 112.21 42.7801 112.11 44.2101C112.01 45.6401 111.86 46.9201 111.69 48.0601C111.534 49.0784 111.293 50.0819 110.97 51.0601C110.702 51.8864 110.325 52.6734 109.85 53.4001C109.572 53.8051 109.235 54.1658 108.85 54.4701C108.504 54.7412 108.119 54.9602 107.71 55.1201C107.342 55.2718 106.96 55.3857 106.57 55.4601C106.239 55.5183 105.905 55.5517 105.57 55.5601C105.19 55.5692 104.811 55.5322 104.44 55.4501C104.135 55.3592 103.838 55.2456 103.55 55.1101L104 51.6401C104.236 51.716 104.482 51.7532 104.73 51.7501C105.076 51.758 105.419 51.6825 105.73 51.5301C106.067 51.3621 106.356 51.1108 106.57 50.8001C106.933 50.2585 107.203 49.6603 107.37 49.0301C107.646 48.0473 107.843 47.0442 107.96 46.0301C108.12 44.8101 108.25 43.3501 108.35 41.6501C108.45 39.9501 108.52 37.9701 108.56 35.7101H121.13V55.3101H116.99L116.91 39.4001Z" fill="white"/>
<path d="M135.22 51.1901H128.61L127 55.3601H122.85L130.52 35.6201H133.58L141.28 55.3601H136.88L135.22 51.1901ZM129.76 47.9201H134.24L132.73 43.8301L132.06 40.7201H131.92L131.24 43.8601L129.76 47.9201Z" fill="white"/>
<path d="M157.45 40.38C157.45 40.8709 157.379 41.3592 157.24 41.83C157.098 42.3079 156.875 42.7578 156.58 43.16C156.264 43.5876 155.866 43.9479 155.41 44.22C154.864 44.5391 154.264 44.7559 153.64 44.86V45C154.237 45.0546 154.823 45.1961 155.38 45.42C155.906 45.6393 156.385 45.9585 156.79 46.36C157.22 46.7732 157.56 47.2701 157.79 47.82C158.034 48.4579 158.153 49.137 158.14 49.82C158.166 50.7487 157.915 51.664 157.42 52.45C156.945 53.1813 156.309 53.7937 155.56 54.24C154.742 54.712 153.854 55.0496 152.93 55.24C151.945 55.4584 150.939 55.569 149.93 55.57H148.6C148.05 55.57 147.47 55.57 146.84 55.57L144.94 55.45C144.351 55.4024 143.767 55.3155 143.19 55.19V35.9C143.58 35.9 144.02 35.79 144.52 35.74C145.02 35.69 145.52 35.63 146.11 35.6C146.7 35.57 147.26 35.53 147.86 35.51H149.65C150.607 35.5085 151.563 35.5787 152.51 35.72C153.383 35.846 154.233 36.1022 155.03 36.48C155.751 36.8175 156.374 37.3339 156.84 37.98C157.287 38.6975 157.5 39.5362 157.45 40.38ZM148.45 43.94H149.45C149.83 43.94 150.15 43.94 150.45 43.87C151.171 43.6588 151.848 43.3201 152.45 42.87C152.713 42.6695 152.924 42.4085 153.065 42.1091C153.206 41.8097 153.273 41.4807 153.26 41.15C153.282 40.734 153.174 40.3215 152.95 39.97C152.74 39.6711 152.458 39.4303 152.13 39.27C151.763 39.0993 151.372 38.9879 150.97 38.94C150.533 38.8795 150.091 38.8495 149.65 38.85C149.11 38.85 148.65 38.85 148.17 38.85C147.812 38.8618 147.455 38.8919 147.1 38.94V43.94H148.45ZM149.77 52.28C150.273 52.2849 150.776 52.238 151.27 52.14C151.714 52.0614 152.14 51.9057 152.53 51.68C152.878 51.4833 153.173 51.2054 153.39 50.87C153.62 50.5059 153.735 50.0807 153.72 49.65C153.748 49.1423 153.607 48.6397 153.32 48.22C153.066 47.8696 152.72 47.5962 152.32 47.43C151.874 47.2445 151.401 47.1298 150.92 47.09C150.41 47.04 149.92 47.02 149.37 47.02H147.07V52.12C147.231 52.1598 147.395 52.1865 147.56 52.2H148.28H149.07L149.77 52.28Z" fill="white"/>
<path d="M166.3 47.08H165.21V55.36H161.06V35.76H165.21V44.39L166.21 43.97L172.09 35.76H176.82L170.58 44L169 45L170.68 46.12L177.79 55.33H172.67L166.3 47.08Z" fill="white"/>
<path d="M189.85 51.1901H183.24L181.64 55.3601H177.5L185.17 35.6201H188.22L195.92 55.3601H191.53L189.85 51.1901ZM184.39 47.9201H188.87L187.36 43.8301L186.68 40.7201H186.54L185.87 43.8601L184.39 47.9201Z" fill="white"/>
<path d="M204.13 35.76H217.23V39.4H208.23V43.18L209.49 43.03C209.992 42.9934 210.496 42.9834 211 43C212.051 42.9895 213.101 43.0935 214.13 43.31C215.012 43.4749 215.852 43.8149 216.6 44.31C217.288 44.7889 217.843 45.4361 218.21 46.19C218.596 47.0994 218.795 48.0771 218.795 49.065C218.795 50.0529 218.596 51.0306 218.21 51.94C217.8 52.7602 217.196 53.4675 216.45 54C215.638 54.5772 214.726 54.9977 213.76 55.24C212.616 55.5319 211.44 55.6731 210.26 55.66H208.97L207.33 55.57C206.76 55.57 206.2 55.49 205.64 55.43C205.133 55.385 204.629 55.3115 204.13 55.21V35.76ZM210.6 52.28C211.091 52.2851 211.581 52.2314 212.06 52.12C212.489 52.0147 212.898 51.839 213.27 51.6C213.61 51.3672 213.888 51.0548 214.08 50.69C214.29 50.2717 214.393 49.8079 214.38 49.34C214.398 48.803 214.281 48.2701 214.04 47.79C213.828 47.4049 213.513 47.0863 213.13 46.87C212.711 46.6405 212.253 46.4913 211.78 46.43C211.25 46.3572 210.715 46.3204 210.18 46.32C209.845 46.3239 209.512 46.3473 209.18 46.39C208.77 46.39 208.48 46.48 208.31 46.52V52.14C208.638 52.2127 208.973 52.2529 209.31 52.26L210.6 52.28Z" fill="white"/>
<path d="M232 51.1901H225.39L223.8 55.3601H219.65L227.32 35.6201H230.38L238 55.3601H233.6L232 51.1901ZM226.54 47.9201H231L229.49 43.8301L228.82 40.7201H228.68L228 43.8601L226.54 47.9201Z" fill="white"/>
<path d="M239.85 35.76H253V39.4H244V43.18L245.26 43.03C245.742 42.9818 246.226 42.9584 246.71 42.96C247.765 42.9496 248.818 43.0536 249.85 43.27C250.729 43.4348 251.566 43.7749 252.31 44.27C253.004 44.743 253.559 45.3918 253.92 46.15C254.332 47.0421 254.531 48.0179 254.5 49C254.523 49.9932 254.318 50.9785 253.9 51.88C253.506 52.718 252.912 53.4461 252.17 54C251.363 54.5783 250.454 54.999 249.49 55.24C248.347 55.5313 247.17 55.6724 245.99 55.66H244.7L243.06 55.57C242.49 55.57 241.93 55.49 241.37 55.43C240.86 55.3842 240.352 55.3107 239.85 55.21V35.76ZM246.32 52.28C246.815 52.2856 247.308 52.2319 247.79 52.12C248.219 52.0147 248.628 51.839 249 51.6C249.338 51.3643 249.615 51.0526 249.81 50.69C250.01 50.2687 250.11 49.8064 250.1 49.34C250.121 48.8039 250.008 48.271 249.77 47.79C249.558 47.4049 249.243 47.0863 248.86 46.87C248.441 46.642 247.983 46.4928 247.51 46.43C246.977 46.3568 246.439 46.3201 245.9 46.32C245.566 46.3238 245.232 46.3472 244.9 46.39C244.49 46.39 244.2 46.48 244.03 46.52V52.14C244.359 52.2136 244.694 52.2538 245.03 52.26L246.32 52.28Z" fill="white"/>
<path d="M264.24 44.3001L264.86 46.8001H265.06L265.53 44.1901L268.72 35.7601H273.06L267.38 49.4001C267.005 50.3318 266.574 51.2401 266.09 52.1201C265.709 52.7985 265.249 53.4295 264.72 54.0001C264.267 54.4927 263.715 54.8845 263.1 55.1501C262.439 55.4137 261.732 55.5428 261.02 55.5301C260.488 55.5387 259.956 55.5019 259.43 55.4201C258.961 55.3107 258.515 55.1213 258.11 54.8601L259.11 51.5301C259.425 51.6845 259.762 51.7859 260.11 51.8301C260.412 51.8707 260.716 51.8907 261.02 51.8901C262.02 51.8901 262.67 51.2401 263.02 49.8901L255.02 35.6901H259.89L264.24 44.3001Z" fill="white"/>
<path d="M297.48 47.27H289.64V55.36H285.5V35.76H289.64V43.63H297.48V35.76H301.63V55.36H297.48V47.27Z" fill="white"/>
<path d="M280.973 55.3633V35.7588H277.027V55.3633H280.973ZM277.941 34.3169V31H274.5V34.3169H277.941ZM283.5 34.3169V31H280.059V34.3169H283.5Z" fill="white"/>
</g>
</svg>
