<svg width="311" height="96" viewBox="0 0 311 96" fill="none" xmlns="http://www.w3.org/2000/svg">
<g clip-path="url(#clip0_301_39)">
<path d="M82.24 19.39C81.31 19.94 73.65 23.39 69.53 25.94C62.93 29.94 63.72 32.94 60.53 33.76C60.2339 33.8191 59.9314 33.8393 59.63 33.82C58.8365 33.7355 58.0767 33.4536 57.42 33C56.7295 34.8337 55.9211 36.6207 55 38.35L52.77 42.51L53.95 42.45C60 42 63.06 40.66 68.65 36.87C74.24 33.08 82.54 19.66 82.71 19.33C82.7355 19.2789 82.7556 19.2253 82.77 19.17C82.5795 19.2042 82.3987 19.2793 82.24 19.39Z" fill="url(#paint0_linear_301_39)"/>
<path d="M47.1 21.09C46.6 14.37 39.1 0.440022 38.93 0.090022C38.903 0.0421706 38.8693 -0.00160024 38.83 -0.039978C38.7777 0.0869183 38.7505 0.222767 38.75 0.360022V0.580022C38.75 0.690022 38.75 0.820022 38.75 1.02002C38.69 2.27002 38.4 5.53002 38.22 8.91002C38.1 11.01 38.04 13.16 38.09 14.85C38.3 21.79 40.59 23.07 40.55 25.62C40.5269 25.9328 40.4665 26.2416 40.37 26.54C40.1599 27.0879 39.8418 27.588 39.4347 28.0106C39.0276 28.4332 38.5397 28.7696 38 29C39.2073 30.4989 40.3195 32.072 41.33 33.71C42.12 34.99 42.97 36.37 43.94 37.92C44.17 37.49 44.4 37.05 44.62 36.61C46.1685 33.6301 47.0619 30.3535 47.24 27C47.3224 25.0291 47.2757 23.0549 47.1 21.09Z" fill="url(#paint1_linear_301_39)"/>
<path d="M56.7198 31.83C56.8811 31.429 57.005 31.0139 57.0898 30.59C57.0521 29.9661 56.8521 29.3629 56.5098 28.84C55.7498 27.42 49.7098 17.52 45.3498 10.57C46.8447 13.8704 47.7872 17.394 48.1398 21C48.322 22.9945 48.3721 24.9989 48.2898 27C48.0821 30.4927 47.1345 33.9013 45.5098 37C45.1998 37.65 44.8698 38.27 44.5098 38.9L46.8098 42.55C48.2998 42.55 49.8898 42.55 51.5198 42.47C52.4598 40.73 53.2798 39.21 54.0298 37.8C55.1011 35.8934 56.0013 33.8956 56.7198 31.83Z" fill="url(#paint2_linear_301_39)"/>
<path d="M22.38 31.91C16.31 29 0.53 28.47 0.16 28.5C0.106932 28.4925 0.0530681 28.4925 0 28.5C0.125965 28.6352 0.274947 28.747 0.44 28.83C1.38 29.36 8.19 34.27 12.44 36.56C19.23 40.26 21.44 38.09 23.7 40.42C24.0622 40.8657 24.3319 41.3792 24.4933 41.9304C24.6547 42.4815 24.7046 43.0594 24.64 43.63C24.64 43.63 24.64 43.71 24.64 43.75C26.5429 43.4467 28.4637 43.2696 30.39 43.22C31.89 43.16 33.52 43.12 35.34 43.06C35.08 42.64 34.82 42.22 34.54 41.81C31.14 36.83 28.46 34.84 22.38 31.91Z" fill="url(#paint3_linear_301_39)"/>
<path d="M43.7899 42.79H44.0899C44.5699 42.79 45.0899 42.72 45.6199 42.7C43.4499 39.29 41.8299 36.62 40.3899 34.32C39.2635 32.4283 37.961 30.6471 36.4999 29C35.6599 28.17 35.9799 27.86 34.0599 27.69H33.8099C32.1999 27.64 20.6099 27.92 12.4199 28.22C16.0218 28.5714 19.5417 29.5105 22.8399 31C28.9599 33.94 31.9399 36.17 35.4299 41.32C35.8399 41.91 36.2199 42.51 36.5899 43.11C38.5299 43.05 40.6799 42.96 43.1799 42.83L43.7899 42.79Z" fill="url(#paint4_linear_301_39)"/>
<path d="M19.4001 58.72C13.8301 62.51 5.50008 75.93 5.33008 76.27V76.41C5.51888 76.387 5.69826 76.3146 5.85008 76.2C6.78008 75.65 14.4501 72.2 18.5701 69.65C25.1701 65.65 24.3701 62.65 27.5701 61.83C27.863 61.7723 28.1617 61.7488 28.4601 61.76C29.3429 61.8553 30.1864 62.1755 30.9101 62.69C31.6008 60.8889 32.4092 59.1351 33.3301 57.44C34.0301 56.12 34.8001 54.69 35.6701 53.08C35.1701 53.08 34.6701 53.08 34.1801 53.15C28.0501 53.61 25.0001 54.93 19.4001 58.72Z" fill="url(#paint5_linear_301_39)"/>
<path d="M23.9002 45C22.7302 45.32 22.6302 44.84 21.4102 46.67C20.5702 48.04 15.0202 58.21 11.1802 65.47C13.2877 62.5253 15.8654 59.9475 18.8102 57.84C24.4202 54 27.8102 52.53 34.0402 52.08C34.7602 52.03 35.4702 52.01 36.1702 51.99C37.0602 50.32 38.0302 48.47 39.1702 46.32C39.4806 45.3962 40.0626 44.5876 40.8402 44C36.5402 44.2 33.2902 44.26 30.4602 44.36C28.2587 44.3747 26.063 44.5889 23.9002 45Z" fill="url(#paint6_linear_301_39)"/>
<path d="M44.34 57.86C44.11 58.3 43.88 58.73 43.66 59.18C42.0956 62.1596 41.1885 65.44 41 68.8C40.9266 70.7712 40.9767 72.7451 41.15 74.71C41.65 81.42 49.15 95.36 49.32 95.71C49.3446 95.7568 49.3748 95.8005 49.41 95.84C49.4625 95.7167 49.4897 95.5841 49.49 95.45C49.49 95.38 49.49 95.32 49.49 95.28C49.4809 95.1302 49.4809 94.9799 49.49 94.83C49.55 93.6 49.84 90.32 50.03 86.93C50.14 84.82 50.21 82.68 50.16 80.99C50 74 47.66 72.72 47.7 70.17C47.7134 69.8593 47.7741 69.5524 47.88 69.26C48.0939 68.7056 48.4176 68.2001 48.8318 67.7739C49.2459 67.3478 49.7419 67.0097 50.29 66.78C49.0878 65.2865 47.9886 63.7128 47 62.07C46.15 60.8 45.3 59.41 44.34 57.86Z" fill="url(#paint7_linear_301_39)"/>
<path d="M31.4999 64C31.3398 64.3964 31.2224 64.8087 31.1499 65.23C31.1663 65.8625 31.3642 66.4769 31.7199 67C32.4799 68.42 38.5099 78.31 42.8799 85.26C41.3812 81.9638 40.4353 78.4434 40.0799 74.84C39.9088 72.8282 39.8621 70.8077 39.9399 68.79C40.1368 65.2956 41.085 61.8847 42.7199 58.79C43.0299 58.14 43.3699 57.51 43.7199 56.89C42.7199 55.24 41.5499 53.42 40.1799 51.32C39.9547 50.9692 39.7638 50.5975 39.6099 50.21C39.3624 49.784 39.1835 49.3217 39.0799 48.84C37.0799 52.65 35.5299 55.5 34.1999 57.99C33.1258 59.9105 32.2223 61.9215 31.4999 64Z" fill="url(#paint8_linear_301_39)"/>
<path d="M88.2099 67.24C88.0844 67.1113 87.9393 67.0033 87.7799 66.92C86.8399 66.39 80.0299 61.48 75.7799 59.18C68.9899 55.49 66.7799 57.65 64.5199 55.32C64.1558 54.8755 63.8849 54.3621 63.7234 53.8106C63.5619 53.2591 63.5131 52.6808 63.5799 52.11C63.5799 52 63.5799 51.88 63.5799 51.76C61.5957 52.0881 59.5907 52.2752 57.5799 52.32C56.0999 52.38 54.4899 52.42 52.6899 52.48C52.9899 52.97 53.2899 53.48 53.6199 53.93C57.0599 58.93 59.7299 60.93 65.8099 63.93C71.8899 66.93 87.6599 67.36 88.0299 67.33H88.1899L88.2099 67.24Z" fill="url(#paint9_linear_301_39)"/>
<path d="M44.1299 52.8C43.439 52.7592 42.7613 52.5932 42.1299 52.31C44.5799 56.13 46.3199 59.03 47.8699 61.52C49.0071 63.4103 50.3124 65.1941 51.7699 66.85C52.5999 67.67 52.2899 67.98 54.2199 68.15H54.4599C56.0699 68.15 67.6799 67.92 75.8799 67.62C72.2664 67.2668 68.7358 66.3208 65.4299 64.82C59.3099 61.88 56.3299 59.66 52.8399 54.51C52.3899 53.85 51.9599 53.18 51.5499 52.51C49.5999 52.57 47.4299 52.66 44.8999 52.79C44.5999 52.81 44.3599 52.81 44.1299 52.8Z" fill="url(#paint10_linear_301_39)"/>
<path d="M69.2399 37.74C63.6399 41.57 60.2399 43.04 54.0099 43.49C50.3899 43.76 46.8299 43.49 44.1899 43.79C41.7599 44.05 40.1199 45.36 39.9399 47.66C39.9713 48.7626 40.4342 49.8089 41.229 50.5737C42.0237 51.3386 43.087 51.761 44.1899 51.75H44.8099C50.3399 51.47 54.2599 51.4 57.5899 51.28C59.7935 51.2484 61.9894 51.0141 64.1499 50.58C65.3199 50.25 65.4199 50.73 66.6299 48.9C67.4799 47.53 73.0299 37.35 76.8699 30.1C74.765 33.0498 72.1869 35.6312 69.2399 37.74ZM44.1199 50.06C43.6922 50.0351 43.2814 49.8835 42.9401 49.6245C42.5987 49.3655 42.342 49.0108 42.2028 48.6055C42.0636 48.2003 42.048 47.7627 42.1581 47.3486C42.2683 46.9345 42.4991 46.5625 42.8212 46.2799C43.1434 45.9973 43.5423 45.8169 43.9672 45.7617C44.3922 45.7065 44.8239 45.7789 45.2076 45.9697C45.5913 46.1606 45.9095 46.4612 46.1218 46.8335C46.3342 47.2057 46.431 47.6326 46.3999 48.06C46.3564 48.6251 46.0934 49.1507 45.6673 49.5245C45.2413 49.8982 44.6859 50.0904 44.1199 50.06Z" fill="url(#paint11_linear_301_39)"/>
<path d="M116.91 39.4H112.4C112.31 41.18 112.21 42.78 112.11 44.21C112.01 45.64 111.86 46.92 111.69 48.06C111.534 49.0783 111.293 50.0818 110.97 51.06C110.702 51.8863 110.325 52.6733 109.85 53.4C109.572 53.805 109.235 54.1657 108.85 54.47C108.504 54.7411 108.119 54.9601 107.71 55.12C107.342 55.2717 106.96 55.3856 106.57 55.46C106.239 55.5182 105.905 55.5516 105.57 55.56C105.19 55.5691 104.811 55.5321 104.44 55.45C104.135 55.3591 103.838 55.2455 103.55 55.11L104 51.64C104.236 51.7159 104.482 51.7531 104.73 51.75C105.076 51.7579 105.419 51.6824 105.73 51.53C106.067 51.362 106.356 51.1107 106.57 50.8C106.933 50.2584 107.203 49.6602 107.37 49.03C107.646 48.0472 107.843 47.0441 107.96 46.03C108.12 44.81 108.25 43.35 108.35 41.65C108.45 39.95 108.52 37.97 108.56 35.71H121.13V55.31H116.99L116.91 39.4Z" fill="#5A5C5C"/>
<path d="M135.22 51.19H128.61L127 55.36H122.85L130.52 35.62H133.58L141.28 55.36H136.88L135.22 51.19ZM129.76 47.92H134.24L132.73 43.83L132.06 40.72H131.92L131.24 43.86L129.76 47.92Z" fill="#5A5C5C"/>
<path d="M157.45 40.38C157.45 40.8709 157.379 41.3592 157.24 41.83C157.098 42.3079 156.875 42.7578 156.58 43.16C156.264 43.5876 155.866 43.9479 155.41 44.22C154.864 44.5391 154.264 44.7559 153.64 44.86V45C154.237 45.0546 154.823 45.1961 155.38 45.42C155.906 45.6393 156.385 45.9585 156.79 46.36C157.22 46.7732 157.56 47.2701 157.79 47.82C158.034 48.4579 158.153 49.137 158.14 49.82C158.166 50.7487 157.915 51.664 157.42 52.45C156.945 53.1813 156.309 53.7937 155.56 54.24C154.742 54.712 153.854 55.0496 152.93 55.24C151.945 55.4584 150.939 55.569 149.93 55.57H148.6C148.05 55.57 147.47 55.57 146.84 55.57L144.94 55.45C144.351 55.4024 143.767 55.3155 143.19 55.19V35.9C143.58 35.9 144.02 35.79 144.52 35.74C145.02 35.69 145.52 35.63 146.11 35.6C146.7 35.57 147.26 35.53 147.86 35.51H149.65C150.607 35.5085 151.563 35.5787 152.51 35.72C153.383 35.846 154.233 36.1022 155.03 36.48C155.751 36.8175 156.374 37.3339 156.84 37.98C157.287 38.6975 157.5 39.5362 157.45 40.38ZM148.45 43.94H149.45C149.83 43.94 150.15 43.94 150.45 43.87C151.171 43.6588 151.848 43.3201 152.45 42.87C152.713 42.6695 152.924 42.4085 153.065 42.1091C153.206 41.8097 153.273 41.4807 153.26 41.15C153.282 40.734 153.174 40.3215 152.95 39.97C152.74 39.6711 152.458 39.4303 152.13 39.27C151.763 39.0993 151.372 38.9879 150.97 38.94C150.533 38.8795 150.091 38.8495 149.65 38.85C149.11 38.85 148.65 38.85 148.17 38.85C147.812 38.8618 147.455 38.8919 147.1 38.94V43.94H148.45ZM149.77 52.28C150.273 52.2849 150.776 52.238 151.27 52.14C151.714 52.0614 152.14 51.9057 152.53 51.68C152.878 51.4833 153.173 51.2054 153.39 50.87C153.62 50.5059 153.735 50.0807 153.72 49.65C153.748 49.1423 153.607 48.6397 153.32 48.22C153.066 47.8696 152.72 47.5962 152.32 47.43C151.874 47.2445 151.401 47.1298 150.92 47.09C150.41 47.04 149.92 47.02 149.37 47.02H147.07V52.12C147.231 52.1598 147.395 52.1865 147.56 52.2H148.28H149.07L149.77 52.28Z" fill="#5A5C5C"/>
<path d="M166.3 47.08H165.21V55.36H161.06V35.76H165.21V44.39L166.21 43.97L172.09 35.76H176.82L170.58 44L169 45L170.68 46.12L177.79 55.33H172.67L166.3 47.08Z" fill="#5A5C5C"/>
<path d="M189.85 51.19H183.24L181.64 55.36H177.5L185.17 35.62H188.22L195.92 55.36H191.53L189.85 51.19ZM184.39 47.92H188.87L187.36 43.83L186.68 40.72H186.54L185.87 43.86L184.39 47.92Z" fill="#5A5C5C"/>
<path d="M204.13 35.76H217.23V39.4H208.23V43.18L209.49 43.03C209.992 42.9934 210.496 42.9834 211 43C212.051 42.9895 213.101 43.0935 214.13 43.31C215.012 43.4749 215.852 43.8149 216.6 44.31C217.288 44.7889 217.843 45.4361 218.21 46.19C218.596 47.0994 218.795 48.0771 218.795 49.065C218.795 50.0529 218.596 51.0306 218.21 51.94C217.8 52.7602 217.196 53.4675 216.45 54C215.638 54.5772 214.726 54.9977 213.76 55.24C212.616 55.5319 211.44 55.6731 210.26 55.66H208.97L207.33 55.57C206.76 55.57 206.2 55.49 205.64 55.43C205.133 55.385 204.629 55.3115 204.13 55.21V35.76ZM210.6 52.28C211.091 52.2851 211.581 52.2314 212.06 52.12C212.489 52.0147 212.898 51.839 213.27 51.6C213.61 51.3672 213.888 51.0548 214.08 50.69C214.29 50.2717 214.393 49.8079 214.38 49.34C214.398 48.803 214.281 48.2701 214.04 47.79C213.828 47.4049 213.513 47.0863 213.13 46.87C212.711 46.6405 212.253 46.4913 211.78 46.43C211.25 46.3572 210.715 46.3204 210.18 46.32C209.845 46.3239 209.512 46.3473 209.18 46.39C208.77 46.39 208.48 46.48 208.31 46.52V52.14C208.638 52.2127 208.973 52.2529 209.31 52.26L210.6 52.28Z" fill="#5A5C5C"/>
<path d="M232 51.19H225.39L223.8 55.36H219.65L227.32 35.62H230.38L238 55.36H233.6L232 51.19ZM226.54 47.92H231L229.49 43.83L228.82 40.72H228.68L228 43.86L226.54 47.92Z" fill="#5A5C5C"/>
<path d="M239.85 35.76H253V39.4H244V43.18L245.26 43.03C245.742 42.9818 246.226 42.9584 246.71 42.96C247.765 42.9496 248.818 43.0536 249.85 43.27C250.729 43.4348 251.566 43.7749 252.31 44.27C253.004 44.743 253.559 45.3918 253.92 46.15C254.332 47.0421 254.531 48.0179 254.5 49C254.523 49.9932 254.318 50.9785 253.9 51.88C253.506 52.718 252.912 53.4461 252.17 54C251.363 54.5783 250.454 54.999 249.49 55.24C248.347 55.5313 247.17 55.6724 245.99 55.66H244.7L243.06 55.57C242.49 55.57 241.93 55.49 241.37 55.43C240.86 55.3842 240.352 55.3107 239.85 55.21V35.76ZM246.32 52.28C246.815 52.2856 247.308 52.2319 247.79 52.12C248.219 52.0147 248.628 51.839 249 51.6C249.338 51.3643 249.615 51.0526 249.81 50.69C250.01 50.2687 250.11 49.8064 250.1 49.34C250.121 48.8039 250.008 48.271 249.77 47.79C249.558 47.4049 249.243 47.0863 248.86 46.87C248.441 46.642 247.983 46.4928 247.51 46.43C246.977 46.3568 246.439 46.3201 245.9 46.32C245.566 46.3238 245.232 46.3472 244.9 46.39C244.49 46.39 244.2 46.48 244.03 46.52V52.14C244.359 52.2136 244.694 52.2538 245.03 52.26L246.32 52.28Z" fill="#5A5C5C"/>
<path d="M264.24 44.3L264.86 46.8H265.06L265.53 44.19L268.72 35.76H273.06L267.38 49.4C267.005 50.3317 266.574 51.24 266.09 52.12C265.709 52.7984 265.249 53.4294 264.72 54C264.267 54.4926 263.715 54.8844 263.1 55.15C262.439 55.4136 261.732 55.5427 261.02 55.53C260.488 55.5386 259.956 55.5018 259.43 55.42C258.961 55.3106 258.515 55.1212 258.11 54.86L259.11 51.53C259.425 51.6844 259.762 51.7858 260.11 51.83C260.412 51.8706 260.716 51.8906 261.02 51.89C262.02 51.89 262.67 51.24 263.02 49.89L255.02 35.69H259.89L264.24 44.3Z" fill="#5A5C5C"/>
<path d="M297.48 47.27H289.64V55.36H285.5V35.76H289.64V43.63H297.48V35.76H301.63V55.36H297.48V47.27Z" fill="#5A5C5C"/>
<path d="M280.973 55.3633V35.7588H277.027V55.3633H280.973ZM277.941 34.3169V31H274.5V34.3169H277.941ZM283.5 34.3169V31H280.059V34.3169H283.5Z" fill="#5A5C5C"/>
</g>
<defs>
<linearGradient id="paint0_linear_301_39" x1="82.5997" y1="18.6702" x2="54.0117" y2="42.5134" gradientUnits="userSpaceOnUse">
<stop stop-color="#EC008C"/>
<stop offset="1" stop-color="#B10069"/>
</linearGradient>
<linearGradient id="paint1_linear_301_39" x1="42.0078" y1="5.6676" x2="42.8986" y2="36.2993" gradientUnits="userSpaceOnUse">
<stop stop-color="#7AC143"/>
<stop offset="1" stop-color="#589231"/>
</linearGradient>
<linearGradient id="paint2_linear_301_39" x1="42.8074" y1="40.0498" x2="50.1734" y2="23.3303" gradientUnits="userSpaceOnUse">
<stop stop-color="#7AC143"/>
<stop offset="1" stop-color="#A1D078"/>
</linearGradient>
<linearGradient id="paint3_linear_301_39" x1="9.87701" y1="36.1906" x2="25.1368" y2="35.8574" gradientUnits="userSpaceOnUse">
<stop stop-color="#E2E419"/>
<stop offset="1" stop-color="#AFBE24"/>
</linearGradient>
<linearGradient id="paint4_linear_301_39" x1="28.7204" y1="37.1912" x2="30.3914" y2="27.5068" gradientUnits="userSpaceOnUse">
<stop stop-color="#E2E419"/>
<stop offset="1" stop-color="#EAEA71"/>
</linearGradient>
<linearGradient id="paint5_linear_301_39" x1="5.79606" y1="75.4985" x2="35.4041" y2="52.8016" gradientUnits="userSpaceOnUse">
<stop stop-color="#00C0F3"/>
<stop offset="1" stop-color="#008FC0"/>
</linearGradient>
<linearGradient id="paint6_linear_301_39" x1="16.4933" y1="55.6729" x2="38.8571" y2="43.5032" gradientUnits="userSpaceOnUse">
<stop stop-color="#00C0F3"/>
<stop offset="1" stop-color="#71D0F6"/>
</linearGradient>
<linearGradient id="paint7_linear_301_39" x1="48.9932" y1="94.2588" x2="43.9124" y2="57.9146" gradientUnits="userSpaceOnUse">
<stop stop-color="#5A3F99"/>
<stop offset="1" stop-color="#442A74"/>
</linearGradient>
<linearGradient id="paint8_linear_301_39" x1="36.3485" y1="49.0067" x2="39.6004" y2="85.2829" gradientUnits="userSpaceOnUse">
<stop stop-color="#5A3F99"/>
<stop offset="1" stop-color="#806DB1"/>
</linearGradient>
<linearGradient id="paint9_linear_301_39" x1="85.185" y1="66.6275" x2="55.3596" y2="53.7917" gradientUnits="userSpaceOnUse">
<stop stop-color="#9A258F"/>
<stop offset="1" stop-color="#750D6C"/>
</linearGradient>
<linearGradient id="paint10_linear_301_39" x1="73.8972" y1="70.9492" x2="42.9433" y2="55.6294" gradientUnits="userSpaceOnUse">
<stop stop-color="#9A258F"/>
<stop offset="1" stop-color="#B068AB"/>
</linearGradient>
<linearGradient id="paint11_linear_301_39" x1="43.8788" y1="53.1259" x2="77.796" y2="33.1738" gradientUnits="userSpaceOnUse">
<stop stop-color="#EC008C"/>
<stop offset="1" stop-color="#F173AC"/>
</linearGradient>
<clipPath id="clip0_301_39">
<rect width="310.78" height="95.79" fill="white"/>
</clipPath>
</defs>
</svg>
